<svg width="249" height="52" viewBox="0 0 249 52" fill="none" xmlns="http://www.w3.org/2000/svg">
<g clip-path="url(#clip0_233_8208)">
<path d="M49.6147 47.2615H2.36318C1.05768 47.2615 0 48.3192 0 49.6258C0 50.9302 1.05768 51.9878 2.36318 51.9878H49.6136C50.9191 51.9878 51.9768 50.9302 51.9768 49.6258C51.9757 48.3192 50.918 47.2615 49.6147 47.2615Z" fill="white"/>
<path d="M5.31606 41.1179C4.01056 41.1179 2.95288 42.1756 2.95288 43.4811C2.95288 44.7866 4.01056 45.8453 5.31606 45.8453H46.6607C47.9662 45.8453 49.0239 44.7866 49.0239 43.4811C49.0239 42.1756 47.9662 41.1179 46.6607 41.1179H46.071V19.8536H46.6607C47.3146 19.8536 47.8412 19.3248 47.8412 18.6732C47.8412 18.0215 47.3124 17.4927 46.6607 17.4927H5.31606C4.66331 17.4927 4.13558 18.0215 4.13558 18.6732C4.13558 19.3248 4.66442 19.8536 5.31606 19.8536H5.90686V41.1168L5.31606 41.1179ZM41.3447 19.8536V41.1168H34.2573V19.8536H41.3447ZM29.531 19.8536V41.1168H22.4436V19.8536H29.531ZM10.631 19.8536H17.7184V41.1168H10.631V19.8536Z" fill="white"/>
<path d="M2.3632 15.3684H49.6136C49.6213 15.3684 49.6302 15.3684 49.6368 15.3684C50.9434 15.3684 52 14.3107 52 13.0052C52 11.9675 51.3318 11.0879 50.4035 10.7693L26.9598 0.220138C26.3435 -0.0564522 25.6388 -0.0564522 25.0214 0.220138L1.39403 10.8511C0.377283 11.3092 -0.181429 12.4133 0.0531196 13.502C0.286561 14.5906 1.24909 15.3684 2.3632 15.3684Z" fill="white"/>
</g>
<path d="M73.5604 35.5V18.756H82.4004C84.0817 18.756 85.347 19.1547 86.1964 19.952C87.063 20.7493 87.4964 21.876 87.4964 23.332C87.4964 24.216 87.323 24.9613 86.9764 25.568C86.647 26.1573 86.205 26.6167 85.6504 26.946C86.413 27.2233 87.011 27.6307 87.4444 28.168C87.8777 28.7053 88.0944 29.5113 88.0944 30.586C88.0944 32.1807 87.6264 33.4027 86.6904 34.252C85.7544 35.084 84.411 35.5 82.6604 35.5H73.5604ZM77.7464 25.568H81.1524C81.8804 25.568 82.409 25.4033 82.7384 25.074C83.0677 24.7447 83.2324 24.2853 83.2324 23.696C83.2324 23.0547 83.0677 22.578 82.7384 22.266C82.409 21.9367 81.811 21.772 80.9444 21.772H77.7464V25.568ZM77.7464 32.51H81.5684C82.331 32.51 82.8944 32.354 83.2584 32.042C83.6397 31.73 83.8304 31.1753 83.8304 30.378C83.8304 29.7367 83.6484 29.26 83.2844 28.948C82.9204 28.6187 82.2964 28.454 81.4124 28.454H77.7464V32.51ZM95.0646 35.76C94.2846 35.76 93.5566 35.6213 92.8806 35.344C92.222 35.0667 91.6933 34.642 91.2946 34.07C90.896 33.4807 90.6966 32.7527 90.6966 31.886C90.6966 30.6207 91.1213 29.6327 91.9706 28.922C92.8373 28.194 94.1286 27.83 95.8446 27.83H99.2766V27.544C99.2766 26.92 99.0686 26.478 98.6526 26.218C98.2366 25.9407 97.4566 25.802 96.3126 25.802C94.9086 25.802 93.5306 26.0187 92.1786 26.452V23.748C92.7853 23.5053 93.522 23.306 94.3886 23.15C95.2726 22.994 96.2 22.916 97.1706 22.916C99.0773 22.916 100.568 23.306 101.643 24.086C102.735 24.866 103.281 26.1053 103.281 27.804V35.5H99.6146L99.4066 34.46C98.956 34.876 98.3753 35.1967 97.6646 35.422C96.9713 35.6473 96.1046 35.76 95.0646 35.76ZM96.3906 33.186C97.0493 33.186 97.6213 33.0733 98.1066 32.848C98.592 32.6227 98.982 32.3367 99.2766 31.99V30.248H96.3126C95.082 30.248 94.4666 30.742 94.4666 31.73C94.4666 32.1807 94.6226 32.536 94.9346 32.796C95.2466 33.056 95.732 33.186 96.3906 33.186ZM106.791 35.5V23.176H110.691L110.821 24.242C111.324 23.8953 111.956 23.592 112.719 23.332C113.482 23.0547 114.296 22.916 115.163 22.916C116.758 22.916 117.919 23.2973 118.647 24.06C119.375 24.8227 119.739 26.0013 119.739 27.596V35.5H115.553V27.934C115.553 27.2407 115.406 26.7467 115.111 26.452C114.816 26.1573 114.288 26.01 113.525 26.01C113.074 26.01 112.615 26.114 112.147 26.322C111.679 26.53 111.289 26.79 110.977 27.102V35.5H106.791ZM123.254 35.5V17.976H127.44V27.128L131.47 23.176H136.228L131.288 28.298L136.514 35.5H132.068L128.662 30.508L127.44 31.704V35.5H123.254ZM149.821 35.5V21.98H144.907V18.756H158.921V21.98H154.007V35.5H149.821ZM159.846 35.5V23.176H163.824L163.954 24.32C164.491 23.9907 165.158 23.696 165.956 23.436C166.753 23.1587 167.55 22.9853 168.348 22.916V26.062C167.897 26.114 167.394 26.2007 166.84 26.322C166.302 26.426 165.782 26.556 165.28 26.712C164.794 26.868 164.378 27.0327 164.032 27.206V35.5H159.846ZM173.987 35.76C173.207 35.76 172.479 35.6213 171.803 35.344C171.144 35.0667 170.615 34.642 170.217 34.07C169.818 33.4807 169.619 32.7527 169.619 31.886C169.619 30.6207 170.043 29.6327 170.893 28.922C171.759 28.194 173.051 27.83 174.767 27.83H178.199V27.544C178.199 26.92 177.991 26.478 177.575 26.218C177.159 25.9407 176.379 25.802 175.235 25.802C173.831 25.802 172.453 26.0187 171.101 26.452V23.748C171.707 23.5053 172.444 23.306 173.311 23.15C174.195 22.994 175.122 22.916 176.093 22.916C177.999 22.916 179.49 23.306 180.565 24.086C181.657 24.866 182.203 26.1053 182.203 27.804V35.5H178.537L178.329 34.46C177.878 34.876 177.297 35.1967 176.587 35.422C175.893 35.6473 175.027 35.76 173.987 35.76ZM175.312 33.186C175.971 33.186 176.543 33.0733 177.029 32.848C177.514 32.6227 177.904 32.3367 178.199 31.99V30.248H175.235C174.004 30.248 173.389 30.742 173.389 31.73C173.389 32.1807 173.545 32.536 173.857 32.796C174.169 33.056 174.654 33.186 175.312 33.186ZM185.713 35.5V23.176H189.613L189.743 24.242C190.245 23.8953 190.878 23.592 191.641 23.332C192.403 23.0547 193.218 22.916 194.085 22.916C195.679 22.916 196.841 23.2973 197.569 24.06C198.297 24.8227 198.661 26.0013 198.661 27.596V35.5H194.475V27.934C194.475 27.2407 194.327 26.7467 194.033 26.452C193.738 26.1573 193.209 26.01 192.447 26.01C191.996 26.01 191.537 26.114 191.069 26.322C190.601 26.53 190.211 26.79 189.899 27.102V35.5H185.713ZM206.752 35.76C205.764 35.76 204.828 35.6907 203.944 35.552C203.06 35.4133 202.358 35.24 201.838 35.032V31.834C202.444 32.094 203.146 32.2933 203.944 32.432C204.741 32.5707 205.452 32.64 206.076 32.64C206.821 32.64 207.358 32.6053 207.688 32.536C208.034 32.4667 208.208 32.276 208.208 31.964C208.208 31.6173 207.93 31.3573 207.376 31.184C206.821 31.0107 206.058 30.7593 205.088 30.43C203.961 30.0313 203.103 29.572 202.514 29.052C201.942 28.5147 201.656 27.726 201.656 26.686C201.656 25.4727 202.106 24.5453 203.008 23.904C203.926 23.2453 205.382 22.916 207.376 22.916C208.156 22.916 208.927 22.9767 209.69 23.098C210.452 23.2193 211.076 23.358 211.562 23.514V26.66C211.076 26.4347 210.522 26.27 209.898 26.166C209.274 26.062 208.71 26.01 208.208 26.01C207.566 26.01 207.02 26.0533 206.57 26.14C206.136 26.2093 205.92 26.3913 205.92 26.686C205.92 27.0153 206.162 27.2493 206.648 27.388C207.133 27.5093 207.835 27.7173 208.754 28.012C209.724 28.3067 210.478 28.6273 211.016 28.974C211.553 29.3033 211.934 29.702 212.16 30.17C212.385 30.638 212.498 31.2273 212.498 31.938C212.498 33.1687 212.012 34.1133 211.042 34.772C210.071 35.4307 208.641 35.76 206.752 35.76ZM215.529 35.5V26.348H213.891V23.176H215.529V22.162C215.529 20.8273 215.91 19.7267 216.673 18.86C217.436 17.9933 218.571 17.56 220.079 17.56C220.703 17.56 221.258 17.612 221.743 17.716C222.228 17.8027 222.688 17.9327 223.121 18.106V20.914C222.861 20.8273 222.61 20.758 222.367 20.706C222.124 20.654 221.856 20.628 221.561 20.628C220.885 20.628 220.408 20.758 220.131 21.018C219.854 21.2607 219.715 21.668 219.715 22.24V23.176H222.757L222.575 26.348H219.715V35.5H215.529ZM231.397 35.76C229.247 35.76 227.523 35.2313 226.223 34.174C224.923 33.0993 224.273 31.4873 224.273 29.338C224.273 27.3793 224.81 25.8193 225.885 24.658C226.959 23.4967 228.571 22.916 230.721 22.916C232.679 22.916 234.196 23.4187 235.271 24.424C236.345 25.4293 236.883 26.7813 236.883 28.48V30.69H228.147C228.337 31.5047 228.779 32.0767 229.473 32.406C230.183 32.718 231.145 32.874 232.359 32.874C233.035 32.874 233.719 32.8133 234.413 32.692C235.123 32.5707 235.713 32.4147 236.181 32.224V34.954C235.591 35.2313 234.889 35.4307 234.075 35.552C233.26 35.6907 232.367 35.76 231.397 35.76ZM228.147 28.272H233.243V27.726C233.243 27.1193 233.061 26.6427 232.697 26.296C232.333 25.932 231.717 25.75 230.851 25.75C229.845 25.75 229.143 25.958 228.745 26.374C228.346 26.7727 228.147 27.4053 228.147 28.272ZM240.012 35.5V23.176H243.99L244.12 24.32C244.657 23.9907 245.324 23.696 246.122 23.436C246.919 23.1587 247.716 22.9853 248.514 22.916V26.062C248.063 26.114 247.56 26.2007 247.006 26.322C246.468 26.426 245.948 26.556 245.446 26.712C244.96 26.868 244.544 27.0327 244.198 27.206V35.5H240.012Z" fill="white"/>
<defs>
<clipPath id="clip0_233_8208">
<rect width="52" height="52" fill="white"/>
</clipPath>
</defs>
</svg>
