<svg width="20" height="20" viewBox="0 0 20 20" fill="none" xmlns="http://www.w3.org/2000/svg">
<circle cx="10" cy="10" r="9.5" stroke="#FFBC0A"/>
<path fill-rule="evenodd" clip-rule="evenodd" d="M11.5578 2.91429C11.5578 2.40934 11.1502 2 10.6474 2C10.1446 2 9.73697 2.40934 9.73697 2.91429V4.41092C7.77306 3.74826 6.3169 4.09422 5.44886 5.5977C4.09095 7.94968 5.85983 10.211 10.1344 12.3794C10.5829 12.6069 11.1317 12.4263 11.3604 11.9761C11.589 11.5259 11.4108 10.9765 10.9624 10.749C7.50945 8.99744 6.40424 7.58455 7.02573 6.5081C7.61177 5.49305 9.27433 5.75949 12.3015 7.84113L12.6141 8.0591C13.0247 8.34933 13.5936 8.25016 13.8847 7.83761C14.1758 7.42505 14.079 6.85534 13.6684 6.56512C12.924 6.03901 12.2196 5.59283 11.5573 5.23037C11.5576 5.22029 11.5578 5.21016 11.5578 5.2V2.91429ZM6.84461 13.4002C7.88811 14.1343 8.85405 14.7175 9.73697 15.14V17.0857C9.73697 17.5907 10.1446 18 10.6474 18C11.1502 18 11.5578 17.5907 11.5578 17.0857V15.8097C13.2186 16.2031 14.4607 15.7882 15.2266 14.4614C16.5845 12.1095 14.7587 9.81528 10.3818 7.5878C9.92264 7.35414 9.36555 7.52995 9.13749 7.98049C8.90943 8.43104 9.09677 8.9857 9.55592 9.21937C13.0915 11.0187 14.2323 12.4521 13.6108 13.5286C13.0248 14.5436 11.3286 14.2577 8.22309 12.1309L7.9024 11.9082C7.48109 11.6118 6.90276 11.7055 6.61065 12.1175C6.31855 12.5295 6.4233 13.1038 6.84461 13.4002Z" fill="#FFBC0A"/>
</svg>
