<svg width="32" height="31" viewBox="0 0 32 31" fill="none" xmlns="http://www.w3.org/2000/svg">
<path fill-rule="evenodd" clip-rule="evenodd" d="M27.2 6.19998C27.2 7.09294 27.0355 7.89687 26.7107 8.59998H29.6C30.9254 8.59998 32 9.67449 32 11V15H0V11C0 9.67449 1.07452 8.59998 2.4 8.59998H5.28925C4.9645 7.89687 4.8 7.09294 4.8 6.19998C4.8 2.95297 7.6533 0.599976 10.8308 0.599976C12.6957 0.599976 14.6684 1.47306 16 3.04636C17.3315 1.47306 19.3043 0.599976 21.1693 0.599976C24.3467 0.599976 27.2 2.95297 27.2 6.19998ZM8 6.19998C8 5.02031 9.10485 3.79998 10.8308 3.79998C12.5104 3.79998 14.4 5.19127 14.4 7.5333V8.59998H13.0462C11.7581 8.59998 10.3964 8.58222 9.35757 8.1989C8.8735 8.0203 8.55995 7.7951 8.36315 7.53857C8.17856 7.29798 8 6.9054 8 6.19998ZM18.9539 8.59998H17.6V7.5333C17.6 5.19127 19.4896 3.79998 21.1693 3.79998C22.8952 3.79998 24 5.02031 24 6.19998C24 6.9054 23.8214 7.29798 23.6368 7.53857C23.44 7.7951 23.1266 8.0203 22.6424 8.1989C21.6035 8.58222 20.2419 8.59998 18.9539 8.59998Z" fill="#FFBC0A"/>
<path d="M14.4 31V18.2H1.60001V28.6C1.60001 29.928 2.67201 31 4.00001 31H14.4Z" fill="#FFBC0A"/>
<path d="M17.6 31V18.2H30.4V28.6C30.4 29.928 29.328 31 28 31H17.6Z" fill="#FFBC0A"/>
</svg>
