<svg width="110" height="120" viewBox="0 0 110 120" fill="none" xmlns="http://www.w3.org/2000/svg">
<g filter="url(#filter0_d_238_10439)">
<path d="M67.5 51.6954V48.5C67.5 41.6079 61.892 36 55 36C48.1079 36 42.5 41.6079 42.5 48.5V51.6954C41.0128 52.5625 40 54.1573 40 56V71C40 73.7575 42.2424 75.9999 45 75.9999H65C67.7576 75.9999 70 73.7575 70 71V56C70 54.1572 68.9872 52.5625 67.5 51.6954ZM55 41C59.1357 41 62.5 44.3642 62.5 48.5V51H47.5V48.5C47.5 44.3643 50.8643 41 55 41ZM57.5 65.0268V68.5H52.5V65.0268C51.738 64.3404 51.25 63.3563 51.25 62.25C51.25 60.1789 52.9289 58.5 55 58.5C57.0711 58.5 58.75 60.1789 58.75 62.25C58.75 63.3563 58.262 64.3404 57.5 65.0268Z" fill="#FFBC0A"/>
</g>
<defs>
<filter id="filter0_d_238_10439" x="3.05176e-05" y="0" width="110" height="120" filterUnits="userSpaceOnUse" color-interpolation-filters="sRGB">
<feFlood flood-opacity="0" result="BackgroundImageFix"/>
<feColorMatrix in="SourceAlpha" type="matrix" values="0 0 0 0 0 0 0 0 0 0 0 0 0 0 0 0 0 0 127 0" result="hardAlpha"/>
<feOffset dy="4"/>
<feGaussianBlur stdDeviation="20"/>
<feComposite in2="hardAlpha" operator="out"/>
<feColorMatrix type="matrix" values="0 0 0 0 1 0 0 0 0 0.737255 0 0 0 0 0.0392157 0 0 0 0.5 0"/>
<feBlend mode="normal" in2="BackgroundImageFix" result="effect1_dropShadow_238_10439"/>
<feBlend mode="normal" in="SourceGraphic" in2="effect1_dropShadow_238_10439" result="shape"/>
</filter>
</defs>
</svg>
