<svg width="213" height="52" viewBox="0 0 213 52" fill="none" xmlns="http://www.w3.org/2000/svg">
<path fill-rule="evenodd" clip-rule="evenodd" d="M151.576 10H163.345C167.152 10 170.267 11.0737 172.344 12.8632C173.728 14.6526 174.421 17.5158 173.728 20.7368C172.69 28.6105 168.19 32.5474 160.23 32.5474H156.422C155.384 32.5474 154.692 33.2632 154.692 33.9789L153.307 42.9263C153.307 43.6421 152.961 44 152.269 44H146.038C145.346 44 145 43.6421 145 42.9263L149.846 11.4316C150.192 10.7158 150.884 10 151.576 10ZM157.807 26.1053C160.922 26.1053 164.037 26.1053 164.729 21.8105C164.729 20.0211 164.729 18.9474 164.037 18.5895C162.999 17.1579 160.922 17.1579 158.845 17.1579H158.153C157.461 17.1579 157.114 17.5158 157.114 17.8737L155.73 26.1053H157.807Z" fill="white"/>
<path fill-rule="evenodd" clip-rule="evenodd" d="M193.139 21.697H198.628C198.971 21.697 199.657 22.3939 200 22.7424L196.913 42.2576C196.57 42.9545 195.884 43.6515 195.198 43.6515H190.052C189.366 43.6515 189.023 43.303 189.023 42.6061L189.366 40.8636C189.366 40.8636 186.622 44 181.477 44C178.389 44 175.988 43.303 174.273 41.2121C172.558 39.1212 171.529 35.9848 172.215 32.5C173.244 25.8788 178.732 21 184.907 21C187.651 21 190.052 21.697 191.424 23.4394L191.767 24.1364L192.11 22.3939C192.11 22.0455 192.796 21.697 193.139 21.697ZM180.369 36.2797C181.002 36.9231 182.27 37.5664 183.854 37.5664C187.021 37.5664 189.239 35.3147 189.873 32.4196C189.873 31.1329 189.556 29.5245 188.605 28.5594C187.655 27.9161 186.705 27.2727 185.121 27.2727C182.27 27.2727 179.735 29.5245 179.418 32.4196C179.418 34.028 179.735 35.3147 180.369 36.2797Z" fill="white"/>
<path fill-rule="evenodd" clip-rule="evenodd" d="M68.5312 10H80.2188C84.3438 10 87.0938 11.0625 89.1562 12.8333C90.5312 14.6042 91.2188 17.4375 90.5312 20.625C89.5 28.4167 85.0312 32.3125 77.125 32.3125H73.3438C72.3125 32.3125 71.625 33.0208 71.625 33.7292L70.25 42.2292C69.9062 42.9375 69.2188 43.6458 68.5312 43.6458H63.0312C62.3438 43.6458 62 43.2917 62 42.5833L66.8125 11.4167C67.1562 10.7083 67.8438 10 68.5312 10ZM74.7188 25.9375C77.8125 25.9375 80.9062 25.9375 81.5938 21.6875C81.9375 19.9167 81.5938 18.8542 81.25 18.5C80.2188 17.0833 78.1562 17.0833 76.0938 17.0833H75.4062C74.7188 17.0833 74.375 17.4375 74.375 17.7917L73 25.9375H74.7188Z" fill="white"/>
<path fill-rule="evenodd" clip-rule="evenodd" d="M110.125 21.3333H115.625C115.969 21.3333 116.656 22.0417 117 22.3958L113.906 42.2292C113.563 42.9375 112.875 43.6458 112.188 43.6458H107.031C106.344 43.6458 106 43.2917 106 42.5833L106.344 40.8125C106.344 40.8125 103.594 44 98.4375 44C95.3438 44 92.9375 43.2917 91.2188 41.1667C89.5 39.0417 88.4688 35.8542 89.1563 32.3125C90.1875 25.5833 95.6875 20.625 101.875 20.625C104.625 20.625 107.031 21.3333 108.406 23.1042L108.75 23.8125L109.094 22.0417C109.094 21.6875 109.781 21.3333 110.125 21.3333ZM97.3274 36.1538C97.9623 36.8077 99.2322 37.4615 100.819 37.4615C103.994 37.4615 106.216 35.1731 106.851 32.2308C106.851 30.9231 106.534 29.2885 105.581 28.3077C104.629 27.6538 103.677 27 102.089 27C99.2322 27 96.6925 29.2885 96.375 32.2308C96.375 33.8654 96.6925 35.1731 97.3274 36.1538Z" fill="white"/>
<path d="M144.173 21H138.615C137.961 21 137.635 21.3333 137.308 21.6667L130.115 33L126.846 22.3333C126.519 21.6667 126.192 21.3333 125.212 21.3333H119.981C119.327 21.3333 119 22 119 22.6667L124.885 40.3333L119.327 48.3333C119 49 119.327 50 119.981 50H125.212C125.865 50 126.192 49.6667 126.519 49.3333L144.5 23C145.481 22 144.827 21 144.173 21Z" fill="white"/>
<path d="M205.056 10.8527L200 42.9307C200 43.6436 200.361 44 201.083 44H206.139C206.861 44 207.583 43.2872 207.944 42.5743L213 11.2091C213 10.4962 212.639 10.1398 211.917 10.1398H206.139C205.778 9.7834 205.417 10.1398 205.056 10.8527Z" fill="white"/>
<path d="M26.2412 0H9.20145C8.17907 0 7.15668 0.992958 6.81589 1.98592L0 45.3451C0 46.338 0.681589 47 1.36318 47H11.9278L14.6542 30.7817V31.4437C14.995 30.4507 16.0173 29.4577 17.0397 29.4577H22.1516C32.0347 29.4577 39.5322 25.4859 41.9177 14.5634C41.9177 14.2324 42 16.2119 42 13.5785C42.0823 9.23643 41.5769 6.61972 39.1914 3.97183C36.8058 1.32394 32.3755 0 26.2412 0Z" fill="white"/>
<path d="M39.7846 13C39.7846 13.3277 39.7846 13.6555 39.7846 13.9832C37.3125 25.1261 29.5429 28.7311 19.3012 28.7311H14.0038C12.9443 28.7311 11.8848 29.7143 11.5316 30.6975L8 50.6891C8 51.3445 8.35316 52 9.41265 52H18.5949C19.6544 52 20.7138 51.3445 20.7138 50.3613V50.0336L22.4797 39.8739V39.2185C22.4797 38.2353 23.5391 37.5798 24.5986 37.5798H26.0113C34.8403 37.5798 41.9036 34.3025 43.6694 24.4706C44.3757 20.5378 44.0226 16.9328 41.9036 14.6387C41.5504 13.9832 40.8441 13.3277 39.7846 13Z" fill="white" fill-opacity="0.5"/>
<path d="M35.6089 14.0331C34.9137 14.0331 33.6923 14.0331 32.036 14.0331L19.9983 14.0331C19.667 14.0331 18.4237 14.0331 17.8199 14.0331C17.0995 14.0331 16.629 14.3309 16.629 14.9963C16.629 14.9963 15.1126 27.4492 15.0638 27.7799C15.0151 28.1105 13.8691 35.4946 13.8691 35.4946C14.2003 34.4965 16.4926 31.5155 17.4864 31.5155H22.427C32.0336 31.5155 40.4755 26.3543 42.0082 14.7135C42.0082 14.3808 40.2646 14.0331 39.0409 14.0331C37.8172 14.0331 36.3041 14.0331 35.6089 14.0331Z" fill="#DDE8FA"/>
</svg>
